<svg version="1.2" xmlns="http://www.w3.org/2000/svg" viewBox="0 0 918 1571" width="918"
	height="1571">
	<title>EOG_Resources_logo-svg</title>
	<style>
		.s0 { fill: #e43539 }
		.s1 { fill: #373535 }
	</style>
	<g id="Layer">
		<path id="Layer" class="s0"
			d="m883.5 1111.2c-39 254.7-264.8 460.7-507.4 459.7-242.5-1.1-405.5-208-370.8-463.5 18.2-134.2 86.4-245.2 149.1-310.2 62.9-65 75.4-130.1 82.2-175.6 31.4-209.7 160.3-309.4 160.3-309.4-43.5 124.2-8.3 226 10.8 288.1 12.6 45.8 25.5 100.6 16.8 153.6-22.7 138.7-263.7 207.8-292.4 432.1-22.5 175.1 87.9 316.7 254 317.5 166.1 0.6 321.5-140.4 347.6-314.9 25.5-170.5-63.1-266.2-150.4-353.8-144.8-145.2-137.7-284.6-123.6-374.4 37.5-237.6 234.3-433.5 457.7-460.3-115.3 84.8-197 215.2-222.7 364.7-18.7 108.2 6.8 197.6 30.6 250.2 51.7 114.4 192.1 275.5 158.2 496.2z" />
		<path id="Layer" class="s1"
			d="m261.9 1362.1c-36.3-41.3-51.7-99.9-43.3-165 12.2-95.1 78.3-154.4 146.7-219 69.5-65.7 63.7-143.8 61.8-269.3 6.9 58 4.4 99.8 94.4 187.4 89.4 87.1 144.5 155.7 126 279.5-19.6 130.7-138.6 240.7-260.1 240.7h-0.9c-50.7-0.3-93.7-19.1-124.6-54.3z" />
	</g>
</svg>