<svg width="24" height="24" viewBox="0 0 24 24" fill="none" xmlns="http://www.w3.org/2000/svg"
    color="#44546F">
    <mask id="mask0_5979_91" style="mask-type:alpha" maskUnits="userSpaceOnUse" x="-1" y="0"
        width="25" height="24">
        <circle cx="11.9755" cy="12" r="12" fill="currentColor" />
    </mask>
    <g mask="url(#mask0_5979_91)">
        <path
            d="M10.0439 0.122271C10.2097 0.0885786 10.3729 0.0516081 10.5394 0.0215593C11.2304 -0.0961079 11.811 0.286768 11.9581 0.95509C12.1015 1.60519 11.7575 2.1836 11.0751 2.35265C9.91178 2.63843 8.75938 2.95045 7.73209 3.59184C4.55206 5.57771 2.74593 8.41515 2.55321 12.2395C2.5378 12.5329 2.53754 12.8271 2.52971 13.1208C2.50662 13.875 2.03913 14.3628 1.3371 14.3612C0.687745 14.3604 0.203516 13.8612 0.165391 13.129C0.085439 11.6463 0.272926 10.1871 0.741405 8.79032C2.28004 4.20289 5.42304 1.35177 10.0439 0.122271Z"
            fill="currentColor" />
    </g>
</svg>